<svg id="visual" viewBox="0 0 900 600" width="900" height="600" xmlns="http://www.w3.org/2000/svg" xmlns:xlink="http://www.w3.org/1999/xlink" version="1.1"><g stroke-width="1" stroke-linejoin="bevel"><path d="M466 267L415 284L435 365Z" fill="#84b095" stroke="#84b095"></path><path d="M435 365L570 299L466 267Z" fill="#7eaa92" stroke="#7eaa92"></path><path d="M505 419L570 299L435 365Z" fill="#8bb699" stroke="#8bb699"></path><path d="M570 299L493 173L466 267Z" fill="#c0deaf" stroke="#c0deaf"></path><path d="M466 267L368 169L415 284Z" fill="#8bb699" stroke="#8bb699"></path><path d="M368 169L302 288L415 284Z" fill="#c8e4b2" stroke="#c8e4b2"></path><path d="M415 284L291 374L435 365Z" fill="#99c19f" stroke="#99c19f"></path><path d="M435 365L392 520L505 419Z" fill="#92bb9c" stroke="#92bb9c"></path><path d="M493 173L368 169L466 267Z" fill="#99c19f" stroke="#99c19f"></path><path d="M302 288L291 374L415 284Z" fill="#92bb9c" stroke="#92bb9c"></path><path d="M570 299L575 173L493 173Z" fill="#84b095" stroke="#84b095"></path><path d="M493 173L384 97L368 169Z" fill="#7eaa92" stroke="#7eaa92"></path><path d="M575 173L521 123L493 173Z" fill="#a0c7a2" stroke="#a0c7a2"></path><path d="M384 97L304 171L368 169Z" fill="#8bb699" stroke="#8bb699"></path><path d="M368 169L304 171L302 288Z" fill="#a0c7a2" stroke="#a0c7a2"></path><path d="M302 288L233 325L291 374Z" fill="#a8cda5" stroke="#a8cda5"></path><path d="M296 461L392 520L435 365Z" fill="#c8e4b2" stroke="#c8e4b2"></path><path d="M291 374L296 461L435 365Z" fill="#99c19f" stroke="#99c19f"></path><path d="M568 524L637 429L505 419Z" fill="#84b095" stroke="#84b095"></path><path d="M505 419L637 429L570 299Z" fill="#b7d8ac" stroke="#b7d8ac"></path><path d="M570 299L713 275L575 173Z" fill="#c8e4b2" stroke="#c8e4b2"></path><path d="M219 161L233 325L302 288Z" fill="#92bb9c" stroke="#92bb9c"></path><path d="M291 374L236 422L296 461Z" fill="#c0deaf" stroke="#c0deaf"></path><path d="M392 520L514 536L505 419Z" fill="#84b095" stroke="#84b095"></path><path d="M521 123L384 97L493 173Z" fill="#99c19f" stroke="#99c19f"></path><path d="M514 536L568 524L505 419Z" fill="#84b095" stroke="#84b095"></path><path d="M233 325L236 422L291 374Z" fill="#99c19f" stroke="#99c19f"></path><path d="M767 407L689 391L735 515Z" fill="#99c19f" stroke="#99c19f"></path><path d="M637 429L689 391L570 299Z" fill="#afd3a8" stroke="#afd3a8"></path><path d="M689 391L713 275L570 299Z" fill="#c0deaf" stroke="#c0deaf"></path><path d="M575 173L633 117L521 123Z" fill="#b7d8ac" stroke="#b7d8ac"></path><path d="M681 161L633 117L575 173Z" fill="#92bb9c" stroke="#92bb9c"></path><path d="M521 123L536 0L384 97Z" fill="#c0deaf" stroke="#c0deaf"></path><path d="M713 275L681 161L575 173Z" fill="#92bb9c" stroke="#92bb9c"></path><path d="M286 82L219 161L304 171Z" fill="#c8e4b2" stroke="#c8e4b2"></path><path d="M304 171L219 161L302 288Z" fill="#b7d8ac" stroke="#b7d8ac"></path><path d="M107 437L222 511L236 422Z" fill="#c8e4b2" stroke="#c8e4b2"></path><path d="M392 520L467 600L514 536Z" fill="#afd3a8" stroke="#afd3a8"></path><path d="M514 536L581 600L568 524Z" fill="#8bb699" stroke="#8bb699"></path><path d="M370 600L467 600L392 520Z" fill="#7eaa92" stroke="#7eaa92"></path><path d="M370 600L392 520L321 600Z" fill="#c0deaf" stroke="#c0deaf"></path><path d="M322 0L286 82L384 97Z" fill="#92bb9c" stroke="#92bb9c"></path><path d="M384 97L286 82L304 171Z" fill="#a8cda5" stroke="#a8cda5"></path><path d="M321 600L392 520L296 461Z" fill="#84b095" stroke="#84b095"></path><path d="M236 422L222 511L296 461Z" fill="#84b095" stroke="#84b095"></path><path d="M138 323L236 422L233 325Z" fill="#8bb699" stroke="#8bb699"></path><path d="M467 600L581 600L514 536Z" fill="#b7d8ac" stroke="#b7d8ac"></path><path d="M568 524L735 515L637 429Z" fill="#8bb699" stroke="#8bb699"></path><path d="M222 511L321 600L296 461Z" fill="#a8cda5" stroke="#a8cda5"></path><path d="M219 161L138 323L233 325Z" fill="#99c19f" stroke="#99c19f"></path><path d="M735 515L689 391L637 429Z" fill="#a8cda5" stroke="#a8cda5"></path><path d="M689 391L782 286L713 275Z" fill="#a8cda5" stroke="#a8cda5"></path><path d="M713 275L776 211L681 161Z" fill="#a0c7a2" stroke="#a0c7a2"></path><path d="M628 0L536 0L633 117Z" fill="#a8cda5" stroke="#a8cda5"></path><path d="M633 117L536 0L521 123Z" fill="#84b095" stroke="#84b095"></path><path d="M536 0L372 0L384 97Z" fill="#99c19f" stroke="#99c19f"></path><path d="M219 0L202 107L286 82Z" fill="#7eaa92" stroke="#7eaa92"></path><path d="M286 82L202 107L219 161Z" fill="#84b095" stroke="#84b095"></path><path d="M219 161L90 205L138 323Z" fill="#c0deaf" stroke="#c0deaf"></path><path d="M767 407L782 286L689 391Z" fill="#b7d8ac" stroke="#b7d8ac"></path><path d="M782 286L776 211L713 275Z" fill="#99c19f" stroke="#99c19f"></path><path d="M730 78L628 0L633 117Z" fill="#a0c7a2" stroke="#a0c7a2"></path><path d="M699 600L735 515L568 524Z" fill="#92bb9c" stroke="#92bb9c"></path><path d="M372 0L322 0L384 97Z" fill="#7eaa92" stroke="#7eaa92"></path><path d="M730 78L633 117L681 161Z" fill="#7eaa92" stroke="#7eaa92"></path><path d="M767 78L730 78L681 161Z" fill="#a8cda5" stroke="#a8cda5"></path><path d="M138 323L107 437L236 422Z" fill="#92bb9c" stroke="#92bb9c"></path><path d="M222 511L174 600L321 600Z" fill="#c8e4b2" stroke="#c8e4b2"></path><path d="M581 600L699 600L568 524Z" fill="#afd3a8" stroke="#afd3a8"></path><path d="M70 128L90 205L202 107Z" fill="#c8e4b2" stroke="#c8e4b2"></path><path d="M202 107L90 205L219 161Z" fill="#99c19f" stroke="#99c19f"></path><path d="M138 323L0 379L107 437Z" fill="#afd3a8" stroke="#afd3a8"></path><path d="M777 600L800 489L735 515Z" fill="#c8e4b2" stroke="#c8e4b2"></path><path d="M735 515L800 489L767 407Z" fill="#99c19f" stroke="#99c19f"></path><path d="M900 377L900 317L782 286Z" fill="#99c19f" stroke="#99c19f"></path><path d="M900 161L767 78L776 211Z" fill="#92bb9c" stroke="#92bb9c"></path><path d="M0 486L100 485L107 437Z" fill="#c0deaf" stroke="#c0deaf"></path><path d="M107 437L100 485L222 511Z" fill="#a0c7a2" stroke="#a0c7a2"></path><path d="M900 317L776 211L782 286Z" fill="#92bb9c" stroke="#92bb9c"></path><path d="M776 211L767 78L681 161Z" fill="#84b095" stroke="#84b095"></path><path d="M730 78L729 0L628 0Z" fill="#84b095" stroke="#84b095"></path><path d="M322 0L219 0L286 82Z" fill="#a8cda5" stroke="#a8cda5"></path><path d="M100 485L174 600L222 511Z" fill="#a0c7a2" stroke="#a0c7a2"></path><path d="M767 78L729 0L730 78Z" fill="#84b095" stroke="#84b095"></path><path d="M121 0L70 128L202 107Z" fill="#7eaa92" stroke="#7eaa92"></path><path d="M90 205L0 294L138 323Z" fill="#b7d8ac" stroke="#b7d8ac"></path><path d="M699 600L777 600L735 515Z" fill="#99c19f" stroke="#99c19f"></path><path d="M100 485L119 600L174 600Z" fill="#92bb9c" stroke="#92bb9c"></path><path d="M900 377L767 407L800 489Z" fill="#92bb9c" stroke="#92bb9c"></path><path d="M900 377L782 286L767 407Z" fill="#a0c7a2" stroke="#a0c7a2"></path><path d="M767 78L804 0L729 0Z" fill="#c0deaf" stroke="#c0deaf"></path><path d="M900 537L900 377L800 489Z" fill="#92bb9c" stroke="#92bb9c"></path><path d="M0 188L0 294L90 205Z" fill="#afd3a8" stroke="#afd3a8"></path><path d="M100 485L0 600L119 600Z" fill="#c0deaf" stroke="#c0deaf"></path><path d="M0 294L0 379L138 323Z" fill="#a0c7a2" stroke="#a0c7a2"></path><path d="M219 0L121 0L202 107Z" fill="#afd3a8" stroke="#afd3a8"></path><path d="M70 128L0 188L90 205Z" fill="#a8cda5" stroke="#a8cda5"></path><path d="M900 121L804 0L767 78Z" fill="#99c19f" stroke="#99c19f"></path><path d="M900 317L900 161L776 211Z" fill="#b7d8ac" stroke="#b7d8ac"></path><path d="M0 101L0 188L70 128Z" fill="#99c19f" stroke="#99c19f"></path><path d="M0 379L0 486L107 437Z" fill="#99c19f" stroke="#99c19f"></path><path d="M900 161L900 121L767 78Z" fill="#a8cda5" stroke="#a8cda5"></path><path d="M777 600L900 537L800 489Z" fill="#92bb9c" stroke="#92bb9c"></path><path d="M0 0L0 101L70 128Z" fill="#92bb9c" stroke="#92bb9c"></path><path d="M777 600L900 600L900 537Z" fill="#7eaa92" stroke="#7eaa92"></path><path d="M0 486L0 600L100 485Z" fill="#8bb699" stroke="#8bb699"></path><path d="M900 121L900 0L804 0Z" fill="#92bb9c" stroke="#92bb9c"></path><path d="M121 0L0 0L70 128Z" fill="#a0c7a2" stroke="#a0c7a2"></path></g></svg>